<svg xmlns="http://www.w3.org/2000/svg" viewBox="0 0 96 112" role="img" aria-labelledby="title desc">
  <title id="title">Calendar Icon</title>
  <desc id="desc">Minimal calendar icon with rings and grid</desc>

  <!-- Outer -->
  <rect x="4" y="16" rx="12" ry="12" width="88" height="92" fill="#ffffff" stroke="#e2e8f0" stroke-width="2"></rect>
  <!-- Top bar -->
  <rect x="4" y="16" rx="12" ry="12" width="88" height="22" fill="#e2e8f0"></rect>
  <!-- Rings -->
  <rect x="26" y="6" width="10" height="22" rx="2" fill="#4338ca"></rect>
  <rect x="60" y="6" width="10" height="22" rx="2" fill="#4338ca"></rect>
  <!-- Grid (3x3) -->
  <g fill="#94a3b8">
    <rect x="18" y="50" width="12" height="12" rx="2"></rect>
    <rect x="42" y="50" width="12" height="12" rx="2"></rect>
    <rect x="66" y="50" width="12" height="12" rx="2"></rect>
    <rect x="18" y="72" width="12" height="12" rx="2"></rect>
    <rect x="42" y="72" width="12" height="12" rx="2"></rect>
    <rect x="66" y="72" width="12" height="12" rx="2"></rect>
    <rect x="18" y="94" width="12" height="12" rx="2"></rect>
    <rect x="42" y="94" width="12" height="12" rx="2"></rect>
    <rect x="66" y="94" width="12" height="12" rx="2"></rect>
  </g>
</svg>
